<?xml version="1.0" standalone="no"?>
<!DOCTYPE svg PUBLIC "-//W3C//DTD SVG 20010904//EN"
 "http://www.w3.org/TR/2001/REC-SVG-20010904/DTD/svg10.dtd">
<svg version="1.0" xmlns="http://www.w3.org/2000/svg"
 width="1280.000000pt" height="1103.000000pt" viewBox="0 0 1280.000000 1103.000000"
 preserveAspectRatio="xMidYMid meet">
<metadata>
Created by potrace 1.15, written by Peter Selinger 2001-2017
</metadata>
<g transform="translate(0.000000,1103.000000) scale(0.100000,-0.100000)"
fill="#000000" stroke="none">
<path d="M7295 11013 c-72 -29 -128 -75 -310 -253 -99 -96 -203 -190 -232
-209 -108 -68 -209 -91 -308 -70 -85 18 -124 15 -181 -14 -89 -45 -149 -103
-288 -275 -192 -240 -272 -309 -399 -347 -76 -23 -144 -19 -218 11 -40 17 -90
29 -134 31 -61 4 -74 2 -105 -19 -75 -51 -86 -131 -50 -388 21 -153 25 -293
10 -350 -5 -19 -22 -71 -38 -115 -16 -44 -57 -199 -91 -345 -74 -319 -109
-436 -166 -555 -49 -101 -99 -159 -164 -188 -93 -41 -191 2 -406 179 -77 64
-232 186 -345 272 -403 306 -546 424 -733 600 -54 50 -102 92 -106 92 -4 0
-23 -12 -42 -26 -87 -65 -235 -123 -401 -155 -146 -29 -395 -32 -538 -6 -190
35 -353 104 -445 187 -94 85 -159 123 -220 128 -47 4 -57 1 -79 -21 -53 -53
-58 -171 -17 -427 38 -237 44 -319 32 -435 -6 -60 -11 -181 -11 -269 -1 -504
-54 -757 -193 -903 -85 -90 -182 -128 -379 -149 l-58 -5 23 -40 c12 -22 70
-107 128 -189 185 -259 201 -283 270 -398 86 -144 122 -231 165 -400 38 -149
58 -200 192 -497 181 -401 209 -581 120 -765 -56 -116 -142 -188 -491 -415
-518 -337 -801 -544 -989 -725 -135 -131 -136 -126 39 -226 305 -172 588 -355
1219 -789 209 -145 397 -269 418 -276 56 -20 86 -52 86 -91 0 -19 -21 -78 -50
-138 -66 -139 -65 -191 8 -226 30 -14 57 -15 206 -9 193 8 483 -4 1009 -41
197 -13 447 -28 555 -33 109 -5 211 -14 227 -21 120 -47 127 -156 30 -478 -43
-141 -47 -218 -12 -250 31 -29 69 -28 192 4 200 52 371 116 835 312 289 123
474 190 673 247 173 49 297 100 536 219 306 153 441 196 622 196 l106 0 53
-148 c29 -81 102 -280 162 -442 222 -599 378 -1039 438 -1234 30 -97 92 -146
170 -134 19 2 26 13 36 58 20 83 17 228 -6 340 -23 114 -80 284 -175 525 -88
223 -129 340 -158 450 -16 57 -37 109 -60 142 -73 109 -104 285 -70 399 19 62
71 132 117 159 100 58 201 54 346 -16 65 -31 135 -52 300 -90 941 -216 1217
-265 1795 -315 346 -31 366 -30 384 19 19 50 2 77 -155 239 -87 89 -156 168
-160 183 -20 79 25 202 97 270 98 92 231 134 604 191 215 33 347 60 412 85 15
6 62 16 105 24 141 24 251 90 343 204 29 36 94 133 144 215 110 178 172 259
243 314 52 40 171 102 195 102 7 0 20 11 28 24 37 55 172 107 480 181 105 26
216 58 247 72 121 54 117 133 -8 196 -64 32 -352 144 -816 317 -208 77 -449
170 -537 207 l-160 66 26 31 c15 17 94 112 176 211 275 333 351 419 484 555
73 74 146 156 162 182 35 56 132 130 291 223 235 138 288 175 328 228 39 53
23 110 -39 143 -16 8 -71 24 -122 34 -118 26 -202 67 -269 133 -128 128 -186
295 -176 506 7 138 41 243 116 354 l54 81 -18 81 c-15 61 -19 119 -19 250 1
272 44 440 191 744 46 96 83 176 81 178 -2 2 -78 -25 -168 -61 -315 -122 -467
-162 -654 -173 -126 -6 -216 5 -336 43 -78 25 -83 25 -123 10 -127 -48 -248
-24 -451 90 -222 125 -243 135 -292 140 l-48 5 -45 -57 c-61 -76 -196 -202
-305 -284 -154 -115 -309 -208 -660 -395 -126 -67 -255 -136 -286 -154 l-56
-31 -75 192 c-99 251 -144 397 -168 536 -23 130 -24 197 -8 297 6 39 10 117 9
175 -3 115 5 169 69 440 51 218 63 374 32 430 -10 20 -35 43 -57 54 -34 17
-45 18 -92 8 -29 -6 -68 -18 -86 -27 -31 -15 -38 -14 -121 10 -340 98 -714
384 -920 702 -105 162 -178 357 -192 508 l-7 75 -41 -1 c-22 0 -59 -7 -81 -16z"/>
</g>
</svg>
