<svg width="197" height="170" viewBox="0 0 197 170" fill="none" xmlns="http://www.w3.org/2000/svg">
<path d="M112.048 0.26136C110.943 0.706512 110.083 1.41261 107.29 4.14492C105.77 5.61853 104.174 7.06143 103.728 7.35308C102.071 8.39689 100.52 8.74994 99.0006 8.42759C97.6959 8.15128 97.0972 8.19733 96.2223 8.64249C94.8561 9.33324 93.9351 10.2235 91.8015 12.8637C88.8542 16.5478 87.6262 17.6069 85.6768 18.1902C84.5102 18.5433 83.4664 18.4819 82.3305 18.0214C81.7165 17.7604 80.949 17.5762 80.2736 17.5455C79.3372 17.4841 79.1377 17.5148 78.6618 17.8372C77.5106 18.62 77.3417 19.848 77.8943 23.793C78.2167 26.1415 78.2781 28.2905 78.0478 29.1655C77.9711 29.4572 77.7101 30.2554 77.4645 30.9308C77.2189 31.6062 76.5896 33.9854 76.0677 36.2265C74.9317 41.1232 74.3945 42.9191 73.5195 44.7458C72.7674 46.2962 71.9999 47.1865 71.0021 47.6316C69.5746 48.261 68.0703 47.6009 64.77 44.8839C63.5881 43.9015 61.2088 42.0288 59.4743 40.7087C53.2882 36.0116 51.0931 34.2003 48.2227 31.4987C47.3938 30.7312 46.657 30.0865 46.5956 30.0865C46.5342 30.0865 46.2425 30.2707 45.9509 30.4856C44.6154 31.4834 42.3436 32.3737 39.7955 32.8649C37.5544 33.31 33.7322 33.3561 31.5372 32.957C28.6207 32.4197 26.1186 31.3606 24.7064 30.0865C23.2635 28.7817 22.2657 28.1984 21.3294 28.1217C20.6079 28.0603 20.4544 28.1063 20.1167 28.444C19.3032 29.2576 19.2264 31.0689 19.8558 34.9985C20.4391 38.6365 20.5312 39.8952 20.347 41.6758C20.2549 42.5968 20.1781 44.4541 20.1781 45.805C20.1628 53.5414 19.3492 57.4249 17.2156 59.666C15.9108 61.0475 14.4219 61.6309 11.3979 61.9532L10.5076 62.03L10.8606 62.644C11.0448 62.9817 11.9352 64.2864 12.8255 65.5451C15.6652 69.5208 15.9108 69.8892 16.97 71.6544C18.2901 73.8648 18.8427 75.2003 19.5027 77.7945C20.086 80.0816 20.393 80.8645 22.4499 85.4234C25.2283 91.5788 25.6581 94.3418 24.2919 97.1662C23.4323 98.9468 22.1122 100.052 16.7551 103.536C8.80374 108.709 4.45968 111.887 1.57387 114.665C-0.498386 116.676 -0.513736 116.599 2.17252 118.134C6.85429 120.775 11.1983 123.584 20.8842 130.246C24.0924 132.471 26.9782 134.375 27.3005 134.482C28.1602 134.789 28.6207 135.28 28.6207 135.879C28.6207 136.171 28.2983 137.076 27.8532 137.997C26.84 140.131 26.8554 140.929 27.976 141.466C28.4365 141.681 28.8509 141.697 31.1381 141.605C34.1006 141.482 38.5521 141.666 46.6263 142.234C49.6502 142.434 53.4877 142.664 55.1455 142.741C56.8187 142.817 58.3844 142.955 58.63 143.063C60.472 143.784 60.5795 145.457 59.0905 150.4C58.4304 152.565 58.369 153.746 58.9063 154.238C59.3822 154.683 59.9655 154.667 61.8535 154.176C64.9235 153.378 67.5484 152.396 74.6708 149.387C79.107 147.499 81.9467 146.471 85.0014 145.596C87.6569 144.843 89.5603 144.061 93.229 142.234C97.9261 139.885 99.9984 139.225 102.777 139.225H104.404L105.217 141.497C105.663 142.741 106.783 145.795 107.704 148.282C111.112 157.477 113.506 164.231 114.427 167.224C114.888 168.713 115.84 169.465 117.037 169.281C117.329 169.25 117.436 169.081 117.59 168.39C117.897 167.116 117.85 164.891 117.497 163.171C117.144 161.422 116.269 158.812 114.811 155.113C113.46 151.69 112.831 149.894 112.386 148.205C112.14 147.33 111.818 146.532 111.465 146.025C110.344 144.352 109.868 141.651 110.39 139.901C110.682 138.949 111.48 137.875 112.186 137.46C113.721 136.57 115.272 136.631 117.497 137.706C118.495 138.182 119.57 138.504 122.102 139.087C136.547 142.403 140.783 143.155 149.656 143.922C154.967 144.398 155.274 144.383 155.55 143.631C155.842 142.863 155.581 142.449 153.171 139.962C151.835 138.596 150.776 137.383 150.715 137.153C150.408 135.94 151.099 134.052 152.204 133.009C153.708 131.596 155.75 130.952 161.475 130.077C164.776 129.57 166.802 129.156 167.8 128.772C168.03 128.68 168.751 128.526 169.411 128.404C171.576 128.035 173.264 127.022 174.676 125.272C175.122 124.72 176.119 123.231 176.887 121.972C178.575 119.24 179.527 117.996 180.617 117.152C181.415 116.538 183.242 115.586 183.61 115.586C183.718 115.586 183.917 115.417 184.04 115.218C184.608 114.374 186.68 113.575 191.408 112.44C193.02 112.04 194.724 111.549 195.199 111.334C197.057 110.505 196.995 109.293 195.077 108.326C194.094 107.834 189.673 106.115 182.551 103.46C179.358 102.278 175.659 100.85 174.308 100.282L171.852 99.2692L172.251 98.7933C172.481 98.5324 173.694 97.0741 174.953 95.5545C179.174 90.4429 180.341 89.1228 182.382 87.0352C183.503 85.8993 184.623 84.6406 184.869 84.2415C185.406 83.3819 186.895 82.246 189.336 80.8184C192.943 78.7001 193.756 78.1322 194.37 77.3186C194.969 76.505 194.724 75.6301 193.772 75.1235C193.526 75.0007 192.682 74.7551 191.899 74.6016C190.088 74.2025 188.798 73.5732 187.77 72.5601C185.805 70.5953 184.915 68.0318 185.068 64.793C185.176 62.6747 185.698 61.0629 186.849 59.359L187.678 58.1157L187.402 56.8723C187.171 55.936 187.11 55.0457 187.11 53.0348C187.125 48.8596 187.785 46.2808 190.042 41.6144C190.748 40.1408 191.316 38.9128 191.285 38.8821C191.254 38.8514 190.088 39.2658 188.706 39.8184C183.871 41.6911 181.538 42.3051 178.667 42.474C176.733 42.5661 175.352 42.3972 173.51 41.8139C172.312 41.4302 172.236 41.4302 171.622 41.6604C169.672 42.3972 167.815 42.0288 164.699 40.2789C161.291 38.3602 160.969 38.2067 160.217 38.1299L159.48 38.0532L158.789 38.9281C157.853 40.0947 155.78 42.0288 154.107 43.2875C151.743 45.0528 149.364 46.4804 143.976 49.3508C142.042 50.3793 140.062 51.4384 139.586 51.7147L138.727 52.1906L137.575 49.2434C136.056 45.3905 135.365 43.1494 134.996 41.0157C134.643 39.0202 134.628 37.9918 134.874 36.4568C134.966 35.8581 135.027 34.6608 135.012 33.7705C134.966 32.0053 135.089 31.1764 136.071 27.0165C136.854 23.6702 137.038 21.2756 136.562 20.416C136.409 20.109 136.025 19.7559 135.687 19.5871C135.165 19.3261 134.996 19.3108 134.275 19.4643C133.83 19.5564 133.231 19.7406 132.955 19.8787C132.479 20.109 132.372 20.0936 131.098 19.7252C125.879 18.2209 120.138 13.8308 116.976 8.94949C115.364 6.46278 114.243 3.46952 114.028 1.15166L113.921 0.000409398L113.292 0.0157594C112.954 0.0157594 112.386 0.12321 112.048 0.26136Z" fill="black"/>
</svg>
