<svg width="302" height="260" viewBox="0 0 302 260" fill="none" xmlns="http://www.w3.org/2000/svg">
<path d="M171.737 0.400297C170.042 1.08276 168.724 2.16528 164.441 6.35417C162.112 8.61334 159.664 10.8254 158.982 11.2726C156.44 12.8728 154.063 13.4141 151.734 12.9199C149.733 12.4963 148.815 12.5669 147.474 13.2494C145.38 14.3083 143.968 15.6733 140.697 19.721C136.178 25.3689 134.296 26.9927 131.307 27.8869C129.518 28.4282 127.918 28.3341 126.177 27.6281C125.235 27.228 124.059 26.9456 123.023 26.8985C121.588 26.8044 121.282 26.8515 120.552 27.3457C118.787 28.5459 118.528 30.4285 119.376 36.4765C119.87 40.0771 119.964 43.3717 119.611 44.7131C119.493 45.1602 119.093 46.3839 118.717 47.4194C118.34 48.4548 117.375 52.1025 116.575 55.5383C114.834 63.0453 114.01 65.7987 112.669 68.5991C111.516 70.976 110.339 72.3409 108.809 73.0234C106.621 73.9882 104.314 72.9763 99.2548 68.8109C97.4428 67.3048 93.7951 64.4338 91.1359 62.4099C81.6521 55.2088 78.2869 52.4319 73.8862 48.2901C72.6154 47.1134 71.4858 46.1251 71.3917 46.1251C71.2975 46.1251 70.8504 46.4075 70.4033 46.7369C68.3559 48.2666 64.873 49.6315 60.9665 50.3845C57.5307 51.067 51.6709 51.1376 48.3057 50.5257C43.8344 49.7021 39.9985 48.0783 37.8335 46.1251C35.6214 44.1247 34.0917 43.2305 32.6562 43.1128C31.5502 43.0187 31.3148 43.0893 30.7971 43.607C29.5499 44.8543 29.4322 47.6312 30.397 53.6556C31.2913 59.233 31.4325 61.1627 31.1501 63.8925C31.0089 65.3045 30.8912 68.152 30.8912 70.2229C30.8677 82.0836 29.6205 88.0375 26.3494 91.4733C24.349 93.5913 22.0663 94.4855 17.4303 94.9797L16.0654 95.0974L16.6067 96.0387C16.8891 96.5564 18.254 98.5567 19.6189 100.486C23.9725 106.582 24.349 107.146 25.9728 109.853C27.9967 113.241 28.8439 115.289 29.8558 119.266C30.75 122.772 31.2207 123.972 34.3741 130.962C38.6336 140.399 39.2926 144.635 37.1981 148.965C35.8803 151.694 33.8564 153.389 25.6434 158.731C13.4532 166.661 6.79338 171.533 2.36916 175.792C-0.807803 178.875 -0.831336 178.757 3.28695 181.111C10.4645 185.158 17.1244 189.465 31.9738 199.678C36.8922 203.091 41.3164 206.009 41.8106 206.174C43.1284 206.644 43.8344 207.397 43.8344 208.315C43.8344 208.762 43.3402 210.151 42.6578 211.563C41.1046 214.834 41.1281 216.057 42.846 216.881C43.552 217.211 44.1874 217.234 47.6939 217.093C52.2357 216.905 59.0603 217.187 71.4387 218.058C76.0747 218.364 81.958 218.717 84.4996 218.834C87.0647 218.952 89.4651 219.164 89.8416 219.328C92.6656 220.435 92.8303 223 90.5476 230.577C89.5357 233.895 89.4415 235.708 90.2652 236.461C90.9947 237.143 91.889 237.119 94.7835 236.366C99.4902 235.143 103.514 233.637 114.434 229.024C121.235 226.13 125.588 224.553 130.271 223.211C134.343 222.058 137.261 220.858 142.885 218.058C150.086 214.457 153.263 213.445 157.523 213.445H160.017L161.264 216.928C161.947 218.834 163.665 223.517 165.077 227.33C170.301 241.426 173.972 251.781 175.384 256.37C176.09 258.652 177.549 259.805 179.385 259.523C179.832 259.476 179.997 259.217 180.232 258.158C180.703 256.205 180.632 252.793 180.091 250.157C179.55 247.474 178.208 243.473 175.973 237.802C173.902 232.554 172.937 229.801 172.254 227.212C171.878 225.871 171.384 224.647 170.842 223.87C169.125 221.305 168.395 217.163 169.195 214.481C169.642 213.022 170.866 211.374 171.948 210.739C174.302 209.374 176.679 209.468 180.091 211.115C181.621 211.845 183.268 212.339 187.151 213.233C209.295 218.317 215.791 219.47 229.393 220.646C237.535 221.376 238.006 221.352 238.429 220.199C238.877 219.023 238.476 218.387 234.782 214.575C232.734 212.48 231.111 210.621 231.016 210.268C230.546 208.409 231.605 205.515 233.299 203.914C235.605 201.749 238.735 200.761 247.513 199.42C252.573 198.643 255.679 198.008 257.209 197.419C257.562 197.278 258.668 197.043 259.68 196.854C262.998 196.29 265.587 194.736 267.752 192.054C268.434 191.206 269.964 188.924 271.14 186.994C273.729 182.805 275.188 180.899 276.859 179.605C278.083 178.663 280.883 177.204 281.448 177.204C281.613 177.204 281.919 176.945 282.107 176.639C282.978 175.345 286.154 174.121 293.403 172.38C295.874 171.768 298.486 171.015 299.215 170.686C302.063 169.415 301.969 167.556 299.027 166.073C297.521 165.32 290.743 162.684 279.824 158.613C274.929 156.801 269.258 154.613 267.187 153.742L263.422 152.189L264.033 151.459C264.386 151.059 266.245 148.823 268.175 146.494C274.647 138.657 276.435 136.633 279.565 133.433C281.283 131.691 283.001 129.762 283.378 129.15C284.201 127.832 286.484 126.09 290.226 123.902C295.756 120.654 297.003 119.784 297.945 118.536C298.862 117.289 298.486 115.948 297.027 115.171C296.65 114.983 295.356 114.606 294.156 114.371C291.379 113.759 289.402 112.794 287.825 111.241C284.813 108.229 283.448 104.299 283.683 99.3333C283.848 96.0858 284.648 93.6148 286.413 91.0026L287.684 89.0965L287.261 87.1903C286.908 85.7548 286.813 84.3898 286.813 81.307C286.837 74.906 287.849 70.9525 291.308 63.7984C292.391 61.5392 293.261 59.6566 293.214 59.6095C293.167 59.5624 291.379 60.1978 289.261 61.045C281.848 63.9161 278.271 64.8574 273.87 65.1163C270.905 65.2574 268.787 64.9986 265.963 64.1043C264.128 63.516 264.01 63.516 263.069 63.869C260.08 64.9986 257.232 64.4338 252.455 61.751C247.231 58.8094 246.737 58.5741 245.583 58.4564L244.454 58.3387L243.395 59.6801C241.959 61.4686 238.782 64.4338 236.217 66.3635C232.593 69.0698 228.946 71.2584 220.685 75.6591C217.72 77.2358 214.685 78.8596 213.955 79.2832L212.637 80.0127L210.872 75.4943C208.542 69.5875 207.483 66.1517 206.919 62.8806C206.377 59.8213 206.354 58.2446 206.73 55.8913C206.872 54.9735 206.966 53.1379 206.942 51.773C206.872 49.0667 207.06 47.7959 208.566 41.4184C209.766 36.2882 210.049 32.6171 209.319 31.2992C209.084 30.8286 208.495 30.2873 207.978 30.0284C207.177 29.6284 206.919 29.6048 205.813 29.8402C205.13 29.9814 204.212 30.2638 203.789 30.4756C203.059 30.8286 202.894 30.805 200.941 30.2402C192.94 27.934 184.139 21.2035 179.291 13.72C176.82 9.90766 175.102 5.31871 174.772 1.76522L174.608 0.00023504L173.643 0.0237681C173.125 0.0237681 172.254 0.1885 171.737 0.400297Z" fill="black"/>
</svg>
